<?xml version="1.0" encoding="UTF-8" standalone="no"?><svg xmlns="http://www.w3.org/2000/svg" xmlns:xlink="http://www.w3.org/1999/xlink" contentScriptType="application/ecmascript" contentStyleType="text/css" height="418px" preserveAspectRatio="none" style="width:695px;height:418px;background:#FFFFFF;" version="1.1" viewBox="0 0 695 418" width="695px" zoomAndPan="magnify"><defs><filter height="300%" id="fx3q8o9fwo2fp" width="300%" x="-1" y="-1"><feGaussianBlur result="blurOut" stdDeviation="2.0"/><feColorMatrix in="blurOut" result="blurOut2" type="matrix" values="0 0 0 0 0 0 0 0 0 0 0 0 0 0 0 0 0 0 .4 0"/><feOffset dx="4.0" dy="4.0" in="blurOut2" result="blurOut3"/><feBlend in="SourceGraphic" in2="blurOut3" mode="normal"/></filter></defs><g><text fill="#000000" font-family="sans-serif" font-size="18" lengthAdjust="spacing" textLength="170" x="256" y="16.708">Tokenizer (current)</text><!--MD5=[fe23ade6195277c01c1d3c1f94dd1b35]
cluster tokenizer--><polygon fill="#FFFFFF" filter="url(#fx3q8o9fwo2fp)" points="16,26.9531,98,26.9531,105,49.25,678,49.25,678,411.9531,16,411.9531,16,26.9531" style="stroke:#000000;stroke-width:1.5;"/><line style="stroke:#000000;stroke-width:1.5;" x1="16" x2="105" y1="49.25" y2="49.25"/><text fill="#000000" font-family="sans-serif" font-size="14" font-weight="bold" lengthAdjust="spacing" textLength="76" x="20" y="41.9482">tokenizer</text><!--MD5=[21f06a44c429d63b2a37f9dc876b6031]
class FileTokenizerFactory--><rect codeLine="6" fill="#FEFECE" filter="url(#fx3q8o9fwo2fp)" height="60.8047" id="FileTokenizerFactory" style="stroke:#A80036;stroke-width:1.5;" width="262" x="400" y="203.4531"/><ellipse cx="465.75" cy="219.4531" fill="#B4A7E5" rx="11" ry="11" style="stroke:#A80036;stroke-width:1.0;"/><path d="M462.1719,215.2344 L462.1719,212.9531 L469.5625,212.9531 L469.5625,215.2344 L467.0938,215.2344 L467.0938,223.6875 L469.5625,223.6875 L469.5625,225.9531 L462.1719,225.9531 L462.1719,223.6875 L464.6406,223.6875 L464.6406,215.2344 L462.1719,215.2344 Z " fill="#000000"/><text fill="#000000" font-family="sans-serif" font-size="12" font-style="italic" lengthAdjust="spacing" textLength="122" x="486.25" y="223.6074">FileTokenizerFactory</text><line style="stroke:#A80036;stroke-width:1.5;" x1="401" x2="661" y1="235.4531" y2="235.4531"/><line style="stroke:#A80036;stroke-width:1.5;" x1="401" x2="661" y1="243.4531" y2="243.4531"/><text fill="#000000" font-family="sans-serif" font-size="11" lengthAdjust="spacing" textLength="250" x="406" y="257.6636">fileTokenizer(:File): Optional&lt;FileTokenizer&gt;</text><!--MD5=[b00adae0e170175bcdc7495e6c6d4104]
class FileTokenizer--><rect codeLine="10" fill="#FEFECE" filter="url(#fx3q8o9fwo2fp)" height="73.6094" id="FileTokenizer" style="stroke:#A80036;stroke-width:1.5;" width="119" x="138.5" y="61.9531"/><ellipse cx="158" cy="77.9531" fill="#B4A7E5" rx="11" ry="11" style="stroke:#A80036;stroke-width:1.0;"/><path d="M154.4219,73.7344 L154.4219,71.4531 L161.8125,71.4531 L161.8125,73.7344 L159.3438,73.7344 L159.3438,82.1875 L161.8125,82.1875 L161.8125,84.4531 L154.4219,84.4531 L154.4219,82.1875 L156.8906,82.1875 L156.8906,73.7344 L154.4219,73.7344 Z " fill="#000000"/><text fill="#000000" font-family="sans-serif" font-size="12" font-style="italic" lengthAdjust="spacing" textLength="77" x="173" y="82.1074">FileTokenizer</text><line style="stroke:#A80036;stroke-width:1.5;" x1="139.5" x2="256.5" y1="93.9531" y2="93.9531"/><line style="stroke:#A80036;stroke-width:1.5;" x1="139.5" x2="256.5" y1="101.9531" y2="101.9531"/><text fill="#000000" font-family="sans-serif" font-size="11" lengthAdjust="spacing" textLength="107" x="144.5" y="116.1636">hasNext(): boolean</text><text fill="#000000" font-family="sans-serif" font-size="11" lengthAdjust="spacing" textLength="74" x="144.5" y="128.9683">next(): String</text><!--MD5=[86c84babd8855594dd8c174bec677c35]
class DefaultFileTokenizerFactory--><rect codeLine="15" fill="#FEFECE" filter="url(#fx3q8o9fwo2fp)" height="48" id="DefaultFileTokenizerFactory" style="stroke:#A80036;stroke-width:1.5;" width="197" x="191.5" y="347.9531"/><ellipse cx="206.5" cy="363.9531" fill="#ADD1B2" rx="11" ry="11" style="stroke:#A80036;stroke-width:1.0;"/><path d="M208.9688,369.8281 Q208.3906,370.1406 207.75,370.2969 Q207.1094,370.4531 206.4063,370.4531 Q203.9063,370.4531 202.5781,368.7813 Q201.2656,367.1094 201.2656,363.9531 Q201.2656,360.7969 202.5781,359.125 Q203.9063,357.4531 206.4063,357.4531 Q207.1094,357.4531 207.75,357.6094 Q208.4063,357.7656 208.9688,358.0781 L208.9688,360.875 Q208.3438,360.3125 207.75,360.0469 Q207.1563,359.7656 206.5313,359.7656 Q205.1875,359.7656 204.5,360.8281 Q203.8125,361.8906 203.8125,363.9531 Q203.8125,366.0313 204.5,367.0938 Q205.1875,368.1406 206.5313,368.1406 Q207.1563,368.1406 207.75,367.875 Q208.3438,367.6094 208.9688,367.0313 L208.9688,369.8281 Z " fill="#000000"/><text fill="#000000" font-family="sans-serif" font-size="12" lengthAdjust="spacing" textLength="165" x="220.5" y="368.1074">DefaultFileTokenizerFactory</text><line style="stroke:#A80036;stroke-width:1.5;" x1="192.5" x2="387.5" y1="379.9531" y2="379.9531"/><line style="stroke:#A80036;stroke-width:1.5;" x1="192.5" x2="387.5" y1="387.9531" y2="387.9531"/><!--MD5=[980493011ecbee94458534bb4b806b88]
class TxtFileTokenizer--><rect codeLine="20" fill="#FEFECE" filter="url(#fx3q8o9fwo2fp)" height="73.6094" id="TxtFileTokenizer" style="stroke:#A80036;stroke-width:1.5;" width="149" x="31.5" y="196.9531"/><ellipse cx="55.95" cy="212.9531" fill="#ADD1B2" rx="11" ry="11" style="stroke:#A80036;stroke-width:1.0;"/><path d="M58.4188,218.8281 Q57.8406,219.1406 57.2,219.2969 Q56.5594,219.4531 55.8563,219.4531 Q53.3563,219.4531 52.0281,217.7813 Q50.7156,216.1094 50.7156,212.9531 Q50.7156,209.7969 52.0281,208.125 Q53.3563,206.4531 55.8563,206.4531 Q56.5594,206.4531 57.2,206.6094 Q57.8563,206.7656 58.4188,207.0781 L58.4188,209.875 Q57.7938,209.3125 57.2,209.0469 Q56.6063,208.7656 55.9813,208.7656 Q54.6375,208.7656 53.95,209.8281 Q53.2625,210.8906 53.2625,212.9531 Q53.2625,215.0313 53.95,216.0938 Q54.6375,217.1406 55.9813,217.1406 Q56.6063,217.1406 57.2,216.875 Q57.7938,216.6094 58.4188,216.0313 L58.4188,218.8281 Z " fill="#000000"/><text fill="#000000" font-family="sans-serif" font-size="12" lengthAdjust="spacing" textLength="96" x="72.05" y="217.1074">TxtFileTokenizer</text><line style="stroke:#A80036;stroke-width:1.5;" x1="32.5" x2="179.5" y1="228.9531" y2="228.9531"/><rect fill="none" height="6" style="stroke:#C82930;stroke-width:1.0;" width="6" x="39.5" y="236.9531"/><text fill="#000000" font-family="sans-serif" font-size="11" lengthAdjust="spacing" textLength="99" x="51.5" y="243.1636">scanner: Scanner</text><line style="stroke:#A80036;stroke-width:1.5;" x1="32.5" x2="179.5" y1="249.7578" y2="249.7578"/><ellipse cx="42.5" cy="260.7578" fill="#84BE84" rx="3" ry="3" style="stroke:#038048;stroke-width:1.0;"/><text fill="#000000" font-family="sans-serif" font-size="11" lengthAdjust="spacing" textLength="123" x="51.5" y="263.9683">TxtFileTokenizer(:File)</text><!--MD5=[82e302aaab7eb62b69487c9dcf3d07ba]
class PdfFileTokenizer--><rect codeLine="27" fill="#FEFECE" filter="url(#fx3q8o9fwo2fp)" height="73.6094" id="PdfFileTokenizer" style="stroke:#A80036;stroke-width:1.5;" width="149" x="215.5" y="196.9531"/><ellipse cx="239.95" cy="212.9531" fill="#ADD1B2" rx="11" ry="11" style="stroke:#A80036;stroke-width:1.0;"/><path d="M242.4188,218.8281 Q241.8406,219.1406 241.2,219.2969 Q240.5594,219.4531 239.8563,219.4531 Q237.3563,219.4531 236.0281,217.7813 Q234.7156,216.1094 234.7156,212.9531 Q234.7156,209.7969 236.0281,208.125 Q237.3563,206.4531 239.8563,206.4531 Q240.5594,206.4531 241.2,206.6094 Q241.8563,206.7656 242.4188,207.0781 L242.4188,209.875 Q241.7938,209.3125 241.2,209.0469 Q240.6063,208.7656 239.9813,208.7656 Q238.6375,208.7656 237.95,209.8281 Q237.2625,210.8906 237.2625,212.9531 Q237.2625,215.0313 237.95,216.0938 Q238.6375,217.1406 239.9813,217.1406 Q240.6063,217.1406 241.2,216.875 Q241.7938,216.6094 242.4188,216.0313 L242.4188,218.8281 Z " fill="#000000"/><text fill="#000000" font-family="sans-serif" font-size="12" lengthAdjust="spacing" textLength="96" x="256.05" y="217.1074">PdfFileTokenizer</text><line style="stroke:#A80036;stroke-width:1.5;" x1="216.5" x2="363.5" y1="228.9531" y2="228.9531"/><rect fill="none" height="6" style="stroke:#C82930;stroke-width:1.0;" width="6" x="223.5" y="236.9531"/><text fill="#000000" font-family="sans-serif" font-size="11" lengthAdjust="spacing" textLength="99" x="235.5" y="243.1636">scanner: Scanner</text><line style="stroke:#A80036;stroke-width:1.5;" x1="216.5" x2="363.5" y1="249.7578" y2="249.7578"/><ellipse cx="226.5" cy="260.7578" fill="#84BE84" rx="3" ry="3" style="stroke:#038048;stroke-width:1.0;"/><text fill="#000000" font-family="sans-serif" font-size="11" lengthAdjust="spacing" textLength="123" x="235.5" y="263.9683">PdfFileTokenizer(:File)</text><!--MD5=[3377c6844bf2ff2f83fcb4d049ef0a8e]
reverse link FileTokenizerFactory to DefaultFileTokenizerFactory--><path codeLine="18" d="M461.03,274.4431 C418.86,298.2431 366.59,327.7331 331.02,347.8031 " fill="none" id="FileTokenizerFactory-backto-DefaultFileTokenizerFactory" style="stroke:#A80036;stroke-width:1.0;stroke-dasharray:7.0,7.0;"/><polygon fill="none" points="457.85,268.1931,478.71,264.4631,464.73,280.3931,457.85,268.1931" style="stroke:#A80036;stroke-width:1.0;"/><!--MD5=[80a77cb86b646949233f578f298b6ff5]
reverse link FileTokenizer to TxtFileTokenizer--><path codeLine="25" d="M161.37,152.9131 C151.22,167.5831 140.44,183.1731 131.11,196.6531 " fill="none" id="FileTokenizer-backto-TxtFileTokenizer" style="stroke:#A80036;stroke-width:1.0;stroke-dasharray:7.0,7.0;"/><polygon fill="none" points="155.73,148.7631,172.86,136.2931,167.24,156.7231,155.73,148.7631" style="stroke:#A80036;stroke-width:1.0;"/><!--MD5=[01b7c84a438b62d7553a5ca2050838a2]
reverse link FileTokenizer to PdfFileTokenizer--><path codeLine="32" d="M234.63,152.9131 C244.78,167.5831 255.56,183.1731 264.89,196.6531 " fill="none" id="FileTokenizer-backto-PdfFileTokenizer" style="stroke:#A80036;stroke-width:1.0;stroke-dasharray:7.0,7.0;"/><polygon fill="none" points="228.76,156.7231,223.14,136.2931,240.27,148.7631,228.76,156.7231" style="stroke:#A80036;stroke-width:1.0;"/><!--MD5=[b3358833c8304fb601697f35e53bba9f]
reverse link TxtFileTokenizer to DefaultFileTokenizerFactory--><path codeLine="34" d="M159.12,274.2131 C191.34,298.0331 231.37,327.6231 258.62,347.7531 " fill="none" id="TxtFileTokenizer-backto-DefaultFileTokenizerFactory" style="stroke:#A80036;stroke-width:1.0;stroke-dasharray:7.0,7.0;"/><polygon fill="#A80036" points="154.83,271.0431,159.6986,279.6045,158.8538,274.0111,164.4473,273.1663,154.83,271.0431" style="stroke:#A80036;stroke-width:1.0;"/><text fill="#000000" font-family="sans-serif" font-size="13" lengthAdjust="spacing" textLength="27" x="215" y="314.02">new</text><!--MD5=[425aab9261598bbfe40b3a2891b80cc0]
reverse link PdfFileTokenizer to DefaultFileTokenizerFactory--><path codeLine="35" d="M290,276.2531 C290,299.6231 290,327.9931 290,347.5531 " fill="none" id="PdfFileTokenizer-backto-DefaultFileTokenizerFactory" style="stroke:#A80036;stroke-width:1.0;stroke-dasharray:7.0,7.0;"/><polygon fill="#A80036" points="290,271.0431,286,280.0431,290,276.0431,294,280.0431,290,271.0431" style="stroke:#A80036;stroke-width:1.0;"/><text fill="#000000" font-family="sans-serif" font-size="13" lengthAdjust="spacing" textLength="27" x="291" y="314.02">new</text><!--MD5=[3da57a045292869c994b275d8023e90c]
@startuml

title Tokenizer (current)

package tokenizer {

    interface FileTokenizerFactory {
        fileTokenizer(:File): Optional<FileTokenizer>
    }

    interface FileTokenizer {
        hasNext(): boolean
        next(): String
    }

    class DefaultFileTokenizerFactory {
    }

    FileTokenizerFactory <|.. DefaultFileTokenizerFactory

    class TxtFileTokenizer {
        - scanner: Scanner
        + TxtFileTokenizer(:File)
    }

    FileTokenizer <|.. TxtFileTokenizer

    class PdfFileTokenizer {
        - scanner: Scanner
        + PdfFileTokenizer(:File)
    }

    FileTokenizer <|.. PdfFileTokenizer

    TxtFileTokenizer <.. DefaultFileTokenizerFactory :new
    PdfFileTokenizer <.. DefaultFileTokenizerFactory :new

}

@enduml

PlantUML version 1.2021.7(Sun May 23 06:40:07 CST 2021)
(GPL source distribution)
Java Runtime: OpenJDK Runtime Environment
JVM: OpenJDK 64-Bit Server VM
Default Encoding: UTF-8
Language: en
Country: US
--></g></svg>