<?xml version="1.0" encoding="UTF-8" standalone="no"?><svg xmlns="http://www.w3.org/2000/svg" xmlns:xlink="http://www.w3.org/1999/xlink" contentScriptType="application/ecmascript" contentStyleType="text/css" height="662px" preserveAspectRatio="none" style="width:447px;height:662px;background:#FFFFFF;" version="1.1" viewBox="0 0 447 662" width="447px" zoomAndPan="magnify"><defs><filter height="300%" id="f15vyhcoqdlyf3" width="300%" x="-1" y="-1"><feGaussianBlur result="blurOut" stdDeviation="2.0"/><feColorMatrix in="blurOut" result="blurOut2" type="matrix" values="0 0 0 0 0 0 0 0 0 0 0 0 0 0 0 0 0 0 .4 0"/><feOffset dx="4.0" dy="4.0" in="blurOut2" result="blurOut3"/><feBlend in="SourceGraphic" in2="blurOut3" mode="normal"/></filter></defs><g><text fill="#000000" font-family="sans-serif" font-size="18" lengthAdjust="spacing" textLength="170" x="132" y="16.708">Tokenizer (current)</text><!--MD5=[fe23ade6195277c01c1d3c1f94dd1b35]
cluster tokenizer--><polygon fill="#FFFFFF" filter="url(#f15vyhcoqdlyf3)" points="16,26.9531,98,26.9531,105,49.25,430,49.25,430,655.9531,16,655.9531,16,26.9531" style="stroke:#000000;stroke-width:1.5;"/><line style="stroke:#000000;stroke-width:1.5;" x1="16" x2="105" y1="49.25" y2="49.25"/><text fill="#000000" font-family="sans-serif" font-size="14" font-weight="bold" lengthAdjust="spacing" textLength="76" x="20" y="41.9482">tokenizer</text><!--MD5=[21f06a44c429d63b2a37f9dc876b6031]
class FileTokenizerFactory--><rect codeLine="6" fill="#FEFECE" filter="url(#f15vyhcoqdlyf3)" height="60.8047" id="FileTokenizerFactory" style="stroke:#A80036;stroke-width:1.5;" width="262" x="92" y="61.9531"/><ellipse cx="157.75" cy="77.9531" fill="#B4A7E5" rx="11" ry="11" style="stroke:#A80036;stroke-width:1.0;"/><path d="M154.1719,73.7344 L154.1719,71.4531 L161.5625,71.4531 L161.5625,73.7344 L159.0938,73.7344 L159.0938,82.1875 L161.5625,82.1875 L161.5625,84.4531 L154.1719,84.4531 L154.1719,82.1875 L156.6406,82.1875 L156.6406,73.7344 L154.1719,73.7344 Z " fill="#000000"/><text fill="#000000" font-family="sans-serif" font-size="12" font-style="italic" lengthAdjust="spacing" textLength="122" x="178.25" y="82.1074">FileTokenizerFactory</text><line style="stroke:#A80036;stroke-width:1.5;" x1="93" x2="353" y1="93.9531" y2="93.9531"/><line style="stroke:#A80036;stroke-width:1.5;" x1="93" x2="353" y1="101.9531" y2="101.9531"/><text fill="#000000" font-family="sans-serif" font-size="11" lengthAdjust="spacing" textLength="250" x="98" y="116.1636">fileTokenizer(:File): Optional&lt;FileTokenizer&gt;</text><!--MD5=[b00adae0e170175bcdc7495e6c6d4104]
class FileTokenizer--><rect codeLine="10" fill="#FEFECE" filter="url(#f15vyhcoqdlyf3)" height="73.6094" id="FileTokenizer" style="stroke:#A80036;stroke-width:1.5;" width="119" x="167.5" y="565.9531"/><ellipse cx="187" cy="581.9531" fill="#B4A7E5" rx="11" ry="11" style="stroke:#A80036;stroke-width:1.0;"/><path d="M183.4219,577.7344 L183.4219,575.4531 L190.8125,575.4531 L190.8125,577.7344 L188.3438,577.7344 L188.3438,586.1875 L190.8125,586.1875 L190.8125,588.4531 L183.4219,588.4531 L183.4219,586.1875 L185.8906,586.1875 L185.8906,577.7344 L183.4219,577.7344 Z " fill="#000000"/><text fill="#000000" font-family="sans-serif" font-size="12" font-style="italic" lengthAdjust="spacing" textLength="77" x="202" y="586.1074">FileTokenizer</text><line style="stroke:#A80036;stroke-width:1.5;" x1="168.5" x2="285.5" y1="597.9531" y2="597.9531"/><line style="stroke:#A80036;stroke-width:1.5;" x1="168.5" x2="285.5" y1="605.9531" y2="605.9531"/><text fill="#000000" font-family="sans-serif" font-size="11" lengthAdjust="spacing" textLength="107" x="173.5" y="620.1636">hasNext(): boolean</text><text fill="#000000" font-family="sans-serif" font-size="11" lengthAdjust="spacing" textLength="74" x="173.5" y="632.9683">next(): String</text><!--MD5=[86c84babd8855594dd8c174bec677c35]
class DefaultFileTokenizerFactory--><rect codeLine="15" fill="#FEFECE" filter="url(#f15vyhcoqdlyf3)" height="60.8047" id="DefaultFileTokenizerFactory" style="stroke:#A80036;stroke-width:1.5;" width="277" x="84.5" y="183.9531"/><ellipse cx="136.25" cy="199.9531" fill="#ADD1B2" rx="11" ry="11" style="stroke:#A80036;stroke-width:1.0;"/><path d="M138.7188,205.8281 Q138.1406,206.1406 137.5,206.2969 Q136.8594,206.4531 136.1563,206.4531 Q133.6563,206.4531 132.3281,204.7813 Q131.0156,203.1094 131.0156,199.9531 Q131.0156,196.7969 132.3281,195.125 Q133.6563,193.4531 136.1563,193.4531 Q136.8594,193.4531 137.5,193.6094 Q138.1563,193.7656 138.7188,194.0781 L138.7188,196.875 Q138.0938,196.3125 137.5,196.0469 Q136.9063,195.7656 136.2813,195.7656 Q134.9375,195.7656 134.25,196.8281 Q133.5625,197.8906 133.5625,199.9531 Q133.5625,202.0313 134.25,203.0938 Q134.9375,204.1406 136.2813,204.1406 Q136.9063,204.1406 137.5,203.875 Q138.0938,203.6094 138.7188,203.0313 L138.7188,205.8281 Z " fill="#000000"/><text fill="#000000" font-family="sans-serif" font-size="12" lengthAdjust="spacing" textLength="165" x="156.75" y="204.1074">DefaultFileTokenizerFactory</text><line style="stroke:#A80036;stroke-width:1.5;" x1="85.5" x2="360.5" y1="215.9531" y2="215.9531"/><rect fill="none" height="6" style="stroke:#C82930;stroke-width:1.0;" width="6" x="92.5" y="223.9531"/><text fill="#000000" font-family="sans-serif" font-size="11" lengthAdjust="spacing" textLength="251" x="104.5" y="230.1636">factories:Map&lt;String, FileTokenizerFactory&gt;</text><line style="stroke:#A80036;stroke-width:1.5;" x1="85.5" x2="360.5" y1="236.7578" y2="236.7578"/><!--MD5=[980493011ecbee94458534bb4b806b88]
class TxtFileTokenizer--><rect codeLine="21" fill="#FEFECE" filter="url(#f15vyhcoqdlyf3)" height="73.6094" id="TxtFileTokenizer" style="stroke:#A80036;stroke-width:1.5;" width="149" x="57.5" y="430.9531"/><ellipse cx="81.95" cy="446.9531" fill="#ADD1B2" rx="11" ry="11" style="stroke:#A80036;stroke-width:1.0;"/><path d="M84.4188,452.8281 Q83.8406,453.1406 83.2,453.2969 Q82.5594,453.4531 81.8563,453.4531 Q79.3563,453.4531 78.0281,451.7813 Q76.7156,450.1094 76.7156,446.9531 Q76.7156,443.7969 78.0281,442.125 Q79.3563,440.4531 81.8563,440.4531 Q82.5594,440.4531 83.2,440.6094 Q83.8563,440.7656 84.4188,441.0781 L84.4188,443.875 Q83.7938,443.3125 83.2,443.0469 Q82.6063,442.7656 81.9813,442.7656 Q80.6375,442.7656 79.95,443.8281 Q79.2625,444.8906 79.2625,446.9531 Q79.2625,449.0313 79.95,450.0938 Q80.6375,451.1406 81.9813,451.1406 Q82.6063,451.1406 83.2,450.875 Q83.7938,450.6094 84.4188,450.0313 L84.4188,452.8281 Z " fill="#000000"/><text fill="#000000" font-family="sans-serif" font-size="12" lengthAdjust="spacing" textLength="96" x="98.05" y="451.1074">TxtFileTokenizer</text><line style="stroke:#A80036;stroke-width:1.5;" x1="58.5" x2="205.5" y1="462.9531" y2="462.9531"/><rect fill="none" height="6" style="stroke:#C82930;stroke-width:1.0;" width="6" x="65.5" y="470.9531"/><text fill="#000000" font-family="sans-serif" font-size="11" lengthAdjust="spacing" textLength="99" x="77.5" y="477.1636">scanner: Scanner</text><line style="stroke:#A80036;stroke-width:1.5;" x1="58.5" x2="205.5" y1="483.7578" y2="483.7578"/><ellipse cx="68.5" cy="494.7578" fill="#84BE84" rx="3" ry="3" style="stroke:#038048;stroke-width:1.0;"/><text fill="#000000" font-family="sans-serif" font-size="11" lengthAdjust="spacing" textLength="123" x="77.5" y="497.9683">TxtFileTokenizer(:File)</text><!--MD5=[82e302aaab7eb62b69487c9dcf3d07ba]
class PdfFileTokenizer--><rect codeLine="27" fill="#FEFECE" filter="url(#f15vyhcoqdlyf3)" height="73.6094" id="PdfFileTokenizer" style="stroke:#A80036;stroke-width:1.5;" width="149" x="247.5" y="430.9531"/><ellipse cx="271.95" cy="446.9531" fill="#ADD1B2" rx="11" ry="11" style="stroke:#A80036;stroke-width:1.0;"/><path d="M274.4188,452.8281 Q273.8406,453.1406 273.2,453.2969 Q272.5594,453.4531 271.8563,453.4531 Q269.3563,453.4531 268.0281,451.7813 Q266.7156,450.1094 266.7156,446.9531 Q266.7156,443.7969 268.0281,442.125 Q269.3563,440.4531 271.8563,440.4531 Q272.5594,440.4531 273.2,440.6094 Q273.8563,440.7656 274.4188,441.0781 L274.4188,443.875 Q273.7938,443.3125 273.2,443.0469 Q272.6063,442.7656 271.9813,442.7656 Q270.6375,442.7656 269.95,443.8281 Q269.2625,444.8906 269.2625,446.9531 Q269.2625,449.0313 269.95,450.0938 Q270.6375,451.1406 271.9813,451.1406 Q272.6063,451.1406 273.2,450.875 Q273.7938,450.6094 274.4188,450.0313 L274.4188,452.8281 Z " fill="#000000"/><text fill="#000000" font-family="sans-serif" font-size="12" lengthAdjust="spacing" textLength="96" x="288.05" y="451.1074">PdfFileTokenizer</text><line style="stroke:#A80036;stroke-width:1.5;" x1="248.5" x2="395.5" y1="462.9531" y2="462.9531"/><rect fill="none" height="6" style="stroke:#C82930;stroke-width:1.0;" width="6" x="255.5" y="470.9531"/><text fill="#000000" font-family="sans-serif" font-size="11" lengthAdjust="spacing" textLength="99" x="267.5" y="477.1636">scanner: Scanner</text><line style="stroke:#A80036;stroke-width:1.5;" x1="248.5" x2="395.5" y1="483.7578" y2="483.7578"/><ellipse cx="258.5" cy="494.7578" fill="#84BE84" rx="3" ry="3" style="stroke:#038048;stroke-width:1.0;"/><text fill="#000000" font-family="sans-serif" font-size="11" lengthAdjust="spacing" textLength="123" x="267.5" y="497.9683">PdfFileTokenizer(:File)</text><!--MD5=[ff1a11e4da2e0c4e3aff26caff5b2898]
class TxtFileTokenizerFactory--><rect codeLine="35" fill="#FEFECE" filter="url(#f15vyhcoqdlyf3)" height="48" id="TxtFileTokenizerFactory" style="stroke:#A80036;stroke-width:1.5;" width="173" x="32.5" y="305.9531"/><ellipse cx="47.5" cy="321.9531" fill="#ADD1B2" rx="11" ry="11" style="stroke:#A80036;stroke-width:1.0;"/><path d="M49.9688,327.8281 Q49.3906,328.1406 48.75,328.2969 Q48.1094,328.4531 47.4063,328.4531 Q44.9063,328.4531 43.5781,326.7813 Q42.2656,325.1094 42.2656,321.9531 Q42.2656,318.7969 43.5781,317.125 Q44.9063,315.4531 47.4063,315.4531 Q48.1094,315.4531 48.75,315.6094 Q49.4063,315.7656 49.9688,316.0781 L49.9688,318.875 Q49.3438,318.3125 48.75,318.0469 Q48.1563,317.7656 47.5313,317.7656 Q46.1875,317.7656 45.5,318.8281 Q44.8125,319.8906 44.8125,321.9531 Q44.8125,324.0313 45.5,325.0938 Q46.1875,326.1406 47.5313,326.1406 Q48.1563,326.1406 48.75,325.875 Q49.3438,325.6094 49.9688,325.0313 L49.9688,327.8281 Z " fill="#000000"/><text fill="#000000" font-family="sans-serif" font-size="12" lengthAdjust="spacing" textLength="141" x="61.5" y="326.1074">TxtFileTokenizerFactory</text><line style="stroke:#A80036;stroke-width:1.5;" x1="33.5" x2="204.5" y1="337.9531" y2="337.9531"/><line style="stroke:#A80036;stroke-width:1.5;" x1="33.5" x2="204.5" y1="345.9531" y2="345.9531"/><!--MD5=[a3f7357d324e8cca0466e55d543f97bd]
class PdfFileTokenizerFactory--><rect codeLine="36" fill="#FEFECE" filter="url(#f15vyhcoqdlyf3)" height="48" id="PdfFileTokenizerFactory" style="stroke:#A80036;stroke-width:1.5;" width="173" x="240.5" y="305.9531"/><ellipse cx="255.5" cy="321.9531" fill="#ADD1B2" rx="11" ry="11" style="stroke:#A80036;stroke-width:1.0;"/><path d="M257.9688,327.8281 Q257.3906,328.1406 256.75,328.2969 Q256.1094,328.4531 255.4063,328.4531 Q252.9063,328.4531 251.5781,326.7813 Q250.2656,325.1094 250.2656,321.9531 Q250.2656,318.7969 251.5781,317.125 Q252.9063,315.4531 255.4063,315.4531 Q256.1094,315.4531 256.75,315.6094 Q257.4063,315.7656 257.9688,316.0781 L257.9688,318.875 Q257.3438,318.3125 256.75,318.0469 Q256.1563,317.7656 255.5313,317.7656 Q254.1875,317.7656 253.5,318.8281 Q252.8125,319.8906 252.8125,321.9531 Q252.8125,324.0313 253.5,325.0938 Q254.1875,326.1406 255.5313,326.1406 Q256.1563,326.1406 256.75,325.875 Q257.3438,325.6094 257.9688,325.0313 L257.9688,327.8281 Z " fill="#000000"/><text fill="#000000" font-family="sans-serif" font-size="12" lengthAdjust="spacing" textLength="141" x="269.5" y="326.1074">PdfFileTokenizerFactory</text><line style="stroke:#A80036;stroke-width:1.5;" x1="241.5" x2="412.5" y1="337.9531" y2="337.9531"/><line style="stroke:#A80036;stroke-width:1.5;" x1="241.5" x2="412.5" y1="345.9531" y2="345.9531"/><!--MD5=[3377c6844bf2ff2f83fcb4d049ef0a8e]
reverse link FileTokenizerFactory to DefaultFileTokenizerFactory--><path codeLine="19" d="M223,143.5731 C223,157.2331 223,171.5931 223,183.7131 " fill="none" id="FileTokenizerFactory-backto-DefaultFileTokenizerFactory" style="stroke:#A80036;stroke-width:1.0;stroke-dasharray:7.0,7.0;"/><polygon fill="none" points="216,143.1131,223,123.1131,230,143.1131,216,143.1131" style="stroke:#A80036;stroke-width:1.0;"/><!--MD5=[b9a6daf79ad0bbef34c038c37fcf72f6]
link TxtFileTokenizer to FileTokenizer--><path codeLine="32" d="M157.96,505.2931 C167.59,518.7831 178.73,534.3731 189.21,549.0431 " fill="none" id="TxtFileTokenizer-to-FileTokenizer" style="stroke:#A80036;stroke-width:1.0;stroke-dasharray:7.0,7.0;"/><polygon fill="none" points="195.14,545.3131,201.07,565.6531,183.75,553.4531,195.14,545.3131" style="stroke:#A80036;stroke-width:1.0;"/><!--MD5=[e35a59164028efa799ff150e5acdec9b]
link PdfFileTokenizer to FileTokenizer--><path codeLine="33" d="M296.04,505.2931 C286.41,518.7831 275.27,534.3731 264.79,549.0431 " fill="none" id="PdfFileTokenizer-to-FileTokenizer" style="stroke:#A80036;stroke-width:1.0;stroke-dasharray:7.0,7.0;"/><polygon fill="none" points="270.25,553.4531,252.93,565.6531,258.86,545.3131,270.25,553.4531" style="stroke:#A80036;stroke-width:1.0;"/><!--MD5=[a440eb035100099b36685e5a2d0edbbd]
reverse link FileTokenizerFactory to TxtFileTokenizerFactory--><path codeLine="38" d="M119.71,132.9131 C98.69,145.9031 79.27,162.6531 67,183.9531 C43.91,224.0431 75.77,276.1731 98.86,305.7531 " fill="none" id="FileTokenizerFactory-backto-TxtFileTokenizerFactory" style="stroke:#A80036;stroke-width:1.0;stroke-dasharray:7.0,7.0;"/><polygon fill="none" points="116.36,126.7731,137.22,123.0931,123.21,138.9831,116.36,126.7731" style="stroke:#A80036;stroke-width:1.0;"/><!--MD5=[0d501c5509390488f3bd81d554df1983]
reverse link FileTokenizerFactory to PdfFileTokenizerFactory--><path codeLine="39" d="M326.29,132.9131 C347.31,145.9031 366.73,162.6531 379,183.9531 C402.09,224.0431 370.23,276.1731 347.14,305.7531 " fill="none" id="FileTokenizerFactory-backto-PdfFileTokenizerFactory" style="stroke:#A80036;stroke-width:1.0;stroke-dasharray:7.0,7.0;"/><polygon fill="none" points="322.79,138.9831,308.78,123.0931,329.64,126.7731,322.79,138.9831" style="stroke:#A80036;stroke-width:1.0;"/><!--MD5=[cc43402bbea50c865f5e97b9c4aa537b]
link TxtFileTokenizerFactory to TxtFileTokenizer--><path codeLine="41" d="M121.21,354.0231 C123.08,373.6131 125.81,402.2031 128.06,425.7131 " fill="none" id="TxtFileTokenizerFactory-to-TxtFileTokenizer" style="stroke:#A80036;stroke-width:1.0;stroke-dasharray:7.0,7.0;"/><polygon fill="#A80036" points="128.56,430.9531,131.6659,421.6068,128.0738,425.9768,123.7038,422.3847,128.56,430.9531" style="stroke:#A80036;stroke-width:1.0;"/><text fill="#000000" font-family="sans-serif" font-size="13" lengthAdjust="spacing" textLength="27" x="126" y="397.02">new</text><!--MD5=[9091c920498613c4ee387a702cebcaab]
link PdfFileTokenizerFactory to PdfFileTokenizer--><path codeLine="42" d="M326.15,354.0231 C325.43,373.6131 324.38,402.2031 323.52,425.7131 " fill="none" id="PdfFileTokenizerFactory-to-PdfFileTokenizer" style="stroke:#A80036;stroke-width:1.0;stroke-dasharray:7.0,7.0;"/><polygon fill="#A80036" points="323.32,430.9531,327.6513,422.1078,323.5056,425.9566,319.6568,421.8109,323.32,430.9531" style="stroke:#A80036;stroke-width:1.0;"/><text fill="#000000" font-family="sans-serif" font-size="13" lengthAdjust="spacing" textLength="27" x="325" y="397.02">new</text><!--MD5=[eb2b7b753b85582652b37356733cbcd4]
reverse link DefaultFileTokenizerFactory to TxtFileTokenizerFactory--><path codeLine="44" d="M187.07,254.6631 C171.5,271.6531 153.79,290.9831 140.34,305.6631 " fill="none" id="DefaultFileTokenizerFactory-backto-TxtFileTokenizerFactory" style="stroke:#A80036;stroke-width:1.0;"/><polygon fill="#FFFFFF" points="195.95,244.9731,188.9485,246.6993,187.8491,253.8261,194.8505,252.0999,195.95,244.9731" style="stroke:#A80036;stroke-width:1.0;"/><text fill="#000000" font-family="sans-serif" font-size="13" lengthAdjust="spacing" textLength="8" x="136.5666" y="294.9974">1</text><!--MD5=[6fddf1afec4d35df76d3869d0e0e1fdc]
reverse link DefaultFileTokenizerFactory to PdfFileTokenizerFactory--><path codeLine="45" d="M258.93,254.6631 C274.5,271.6531 292.21,290.9831 305.66,305.6631 " fill="none" id="DefaultFileTokenizerFactory-backto-PdfFileTokenizerFactory" style="stroke:#A80036;stroke-width:1.0;"/><polygon fill="#FFFFFF" points="250.05,244.9731,251.1495,252.0999,258.1509,253.8261,257.0515,246.6993,250.05,244.9731" style="stroke:#A80036;stroke-width:1.0;"/><text fill="#000000" font-family="sans-serif" font-size="13" lengthAdjust="spacing" textLength="8" x="291.4834" y="294.9974">1</text><!--MD5=[1fcc3fa1238a36c1e9500dd9fa72545a]
@startuml

title Tokenizer (current)

package tokenizer {

    interface FileTokenizerFactory {
        fileTokenizer(:File): Optional<FileTokenizer>
    }

    interface FileTokenizer {
        hasNext(): boolean
        next(): String
    }

    class DefaultFileTokenizerFactory {
        - factories:Map<String, FileTokenizerFactory>
    }

    FileTokenizerFactory <|.. DefaultFileTokenizerFactory

    class TxtFileTokenizer {
        - scanner: Scanner
        + TxtFileTokenizer(:File)
    }


    class PdfFileTokenizer {
        - scanner: Scanner
        + PdfFileTokenizer(:File)
    }

    TxtFileTokenizer ..|> FileTokenizer
    PdfFileTokenizer ..|> FileTokenizer

    class TxtFileTokenizerFactory { }
    class PdfFileTokenizerFactory { }

    FileTokenizerFactory <|.. TxtFileTokenizerFactory
    FileTokenizerFactory <|.. PdfFileTokenizerFactory

    TxtFileTokenizerFactory ..> TxtFileTokenizer :new
    PdfFileTokenizerFactory ..> PdfFileTokenizer :new

    DefaultFileTokenizerFactory o- - "1" TxtFileTokenizerFactory
    DefaultFileTokenizerFactory o- - "1" PdfFileTokenizerFactory
}

@enduml

PlantUML version 1.2021.11(Sat Oct 02 07:26:11 CST 2021)
(GPL source distribution)
Java Runtime: OpenJDK Runtime Environment
JVM: OpenJDK 64-Bit Server VM
Default Encoding: UTF-8
Language: en
Country: US
--></g></svg>